<svg width="1251" height="300" viewBox="0 0 1251 300" fill="none" xmlns="http://www.w3.org/2000/svg">
<path d="M502.672 185.345C504.961 195.644 509.08 204.799 515.031 212.809C524.643 226.77 543.411 240.274 574.766 240.274C617.793 240.274 639.993 216.7 639.993 189.922C639.993 153.761 602.688 145.751 575.223 139.113C558.287 135.223 545.013 129.73 545.013 118.973C545.013 109.818 553.023 101.808 571.333 101.808C585.065 101.808 592.617 106.385 596.966 110.962C599.484 113.709 601.315 116.684 602.23 120.117H637.705C635.645 111.191 631.983 102.952 626.719 95.628C617.564 83.498 601.086 70.9102 571.333 70.9102C532.425 70.9102 509.538 93.7971 509.538 120.117C509.538 148.726 533.112 160.398 557.143 166.12C580.945 172.299 604.519 176.877 604.519 191.067C604.519 201.366 596.508 209.376 574.766 209.376C559.203 209.376 550.048 203.655 544.784 197.475C541.808 194.042 539.52 189.922 538.147 185.345H502.672Z" fill="black"/>
<path d="M651.473 177.334C651.473 211.664 678.708 239.129 714.412 239.129C740.045 239.129 754.922 227.914 763.39 216.242C768.425 209.604 771.858 201.823 773.918 193.355H740.732C739.359 196.788 737.528 199.763 735.239 202.509C730.89 207.087 724.711 211.664 714.412 211.664C698.62 211.664 684.659 197.932 684.659 177.334C684.659 156.736 698.62 143.003 714.412 143.003C724.711 143.003 730.89 147.581 735.239 152.158C737.528 154.905 739.359 157.88 740.732 161.313H773.918C771.629 152.845 767.967 145.063 762.932 138.426C754.464 126.754 739.359 115.539 714.412 115.539C678.708 115.539 651.473 143.003 651.473 177.334Z" fill="black"/>
<path d="M784.208 177.334C784.208 215.097 808.239 239.129 837.992 239.129C850.809 239.129 859.506 234.551 865.686 229.974C869.119 227.227 872.094 224.252 874.611 220.819H875.756V235.696H907.798V118.972H875.756V133.849H874.611C872.094 130.416 869.119 127.44 865.686 124.694C859.506 120.116 850.809 115.539 837.992 115.539C808.239 115.539 784.208 139.57 784.208 177.334ZM817.394 177.334C817.394 155.362 829.753 143.003 846.003 143.003C863.397 143.003 875.756 155.362 875.756 177.334C875.756 199.305 863.397 211.664 846.003 211.664C829.753 211.664 817.394 199.305 817.394 177.334Z" fill="black"/>
<path d="M930.685 235.697H989.046V208.233H962.726V75.4883H930.685V235.697Z" fill="black"/>
<path d="M994.842 177.334C994.842 211.664 1022.08 239.129 1057.78 239.129C1082.96 239.129 1097.83 228.829 1106.98 218.53C1112.25 212.351 1115.91 205.485 1118.43 197.932H1084.1C1082.73 200.45 1080.89 202.738 1078.6 204.798C1074.26 208.231 1068.08 211.664 1057.78 211.664C1042.9 211.664 1030.55 199.076 1028.03 184.2H1119.57V177.334C1119.57 143.232 1094.4 115.539 1057.78 115.539C1022.08 115.539 994.842 143.003 994.842 177.334ZM1029.17 164.746C1032.61 153.074 1042.9 143.003 1057.78 143.003C1072.66 143.003 1082.96 153.303 1085.25 164.746H1029.17Z" fill="black"/>
<path d="M1136.57 192.864C1138.13 201.299 1141.27 208.95 1145.79 215.424C1153.44 226.802 1167.95 237.984 1193.46 237.984C1227.79 237.984 1249.37 216.601 1249.37 190.902C1249.37 167.361 1230.73 148.724 1207.19 148.724H1202.28V147.547L1204.25 146.763L1240.54 124.203V96.7383H1143.43V124.203H1198.36V125.183L1162.07 149.705V171.284H1195.42C1211.11 171.284 1218.96 179.131 1218.96 190.902C1218.96 201.888 1210.13 210.519 1193.46 210.519C1181.88 210.519 1175.41 206.203 1171.68 201.691C1169.52 199.141 1167.95 196.198 1166.97 192.864H1136.57Z" fill="url(#paint0_linear_2128_49)"/>
<path d="M142.064 6.75586L0 149.999L142.064 293.242L244.335 190.124H187.509L142.064 235.945L56.8257 149.999L142.064 64.0532L186.733 109.093H243.559L142.064 6.75586Z" fill="url(#paint1_linear_2128_49)"/>
<path d="M379.959 53.3108V24.6621H351.546L247.504 129.569H178.627L142.064 92.7026L85.2383 150L142.064 207.297L178.97 170.084H247.159L351.548 275.338H379.96V246.689L303.985 170.084H414.196L430.699 149.827L414.196 129.569H304.329L379.959 53.3108Z" fill="url(#paint2_linear_2128_49)"/>
<defs>
<linearGradient id="paint0_linear_2128_49" x1="1135.09" y1="96.7383" x2="1261.12" y2="103.981" gradientUnits="userSpaceOnUse">
<stop stop-color="#886BFE"/>
<stop offset="1" stop-color="#F152FF"/>
</linearGradient>
<linearGradient id="paint1_linear_2128_49" x1="-5.63006" y1="6.75585" x2="471.59" y2="58.3851" gradientUnits="userSpaceOnUse">
<stop stop-color="#886BFE"/>
<stop offset="1" stop-color="#F152FF"/>
</linearGradient>
<linearGradient id="paint2_linear_2128_49" x1="-5.63012" y1="6.75669" x2="471.59" y2="58.386" gradientUnits="userSpaceOnUse">
<stop stop-color="#886BFE"/>
<stop offset="1" stop-color="#F152FF"/>
</linearGradient>
</defs>
</svg>
